<?xml version="1.0" encoding="UTF-8"?>
<svg id="Ebene_1" xmlns="http://www.w3.org/2000/svg" xmlns:xlink="http://www.w3.org/1999/xlink" version="1.1" viewBox="0 0 141.73 141.73">
  <!-- Generator: Adobe Illustrator 29.4.0, SVG Export Plug-In . SVG Version: 2.1.0 Build 152)  -->
  <defs>
    <style>
      .st0 {
        fill: none;
      }

      .st1 {
        fill: #144d96;
      }

      .st1, .st2, .st3, .st4, .st5, .st6, .st7, .st8, .st9, .st10, .st11, .st12, .st13, .st14 {
        isolation: isolate;
        opacity: .8;
      }

      .st15 {
        fill: url(#Unbenannter_Verlauf);
      }

      .st16 {
        fill: url(#Unbenannter_Verlauf_2);
      }

      .st17 {
        fill: url(#Unbenannter_Verlauf_3);
      }

      .st18 {
        fill: url(#Unbenannter_Verlauf_6);
      }

      .st19, .st11 {
        fill: #58bae2;
      }

      .st2 {
        fill: #408ec4;
      }

      .st20 {
        fill: #2385c2;
      }

      .st21 {
        fill: #35afdd;
      }

      .st3 {
        fill: #59b9e2;
      }

      .st4 {
        fill: #1376b5;
      }

      .st22 {
        fill: #0a76b7;
      }

      .st5 {
        fill: #4391c5;
      }

      .st6 {
        fill: #0d73b5;
      }

      .st7 {
        fill: #2c8ec9;
      }

      .st23 {
        fill: #1464a9;
      }

      .st8 {
        fill: #3195cd;
      }

      .st9 {
        fill: #52a9d7;
      }

      .st10 {
        fill: #57a9d8;
      }

      .st24 {
        fill: #0671b2;
      }

      .st25 {
        fill: #2a9ed5;
      }

      .st26 {
        fill: #2284c1;
      }

      .st12 {
        fill: #104993;
      }

      .st27 {
        fill: #80caea;
      }

      .st13 {
        fill: url(#Unbenannter_Verlauf_5);
      }

      .st14 {
        fill: url(#Unbenannter_Verlauf_4);
      }
    </style>
    <linearGradient id="Unbenannter_Verlauf" data-name="Unbenannter Verlauf" x1="35.64" y1="816.89" x2="92.87" y2="713.22" gradientTransform="translate(0 -697.89)" gradientUnits="userSpaceOnUse">
      <stop offset="0" stop-color="#0b72b5"/>
      <stop offset=".06" stop-color="#0b72b5"/>
      <stop offset=".53" stop-color="#39a9dc"/>
      <stop offset="1" stop-color="#39a9dc" stop-opacity=".59"/>
    </linearGradient>
    <linearGradient id="Unbenannter_Verlauf_2" data-name="Unbenannter Verlauf 2" x1="70.83" y1="836.32" x2="128.06" y2="732.65" gradientTransform="translate(0 -697.89)" gradientUnits="userSpaceOnUse">
      <stop offset="0" stop-color="#0b72b5"/>
      <stop offset=".06" stop-color="#0b72b5"/>
      <stop offset=".53" stop-color="#39a9dc"/>
      <stop offset="1" stop-color="#39a9dc" stop-opacity=".59"/>
    </linearGradient>
    <linearGradient id="Unbenannter_Verlauf_3" data-name="Unbenannter Verlauf 3" x1="73.95" y1="838.05" x2="131.18" y2="734.38" gradientTransform="translate(0 -697.89)" gradientUnits="userSpaceOnUse">
      <stop offset="0" stop-color="#0b72b5"/>
      <stop offset=".06" stop-color="#0b72b5"/>
      <stop offset=".53" stop-color="#39a9dc"/>
      <stop offset="1" stop-color="#39a9dc" stop-opacity=".59"/>
    </linearGradient>
    <linearGradient id="Unbenannter_Verlauf_4" data-name="Unbenannter Verlauf 4" x1="2102.29" y1="-995.39" x2="2159.53" y2="-1099.08" gradientTransform="translate(1686.65 1806.33) rotate(-106.68)" gradientUnits="userSpaceOnUse">
      <stop offset="0" stop-color="#39a9dc"/>
      <stop offset=".47" stop-color="#39a9dc"/>
      <stop offset=".94" stop-color="#0b72b5"/>
      <stop offset="1" stop-color="#0b72b5"/>
    </linearGradient>
    <linearGradient id="Unbenannter_Verlauf_5" data-name="Unbenannter Verlauf 5" x1="2093.11" y1="-1000.45" x2="2150.34" y2="-1104.13" gradientTransform="translate(1686.65 1806.33) rotate(-106.68)" gradientUnits="userSpaceOnUse">
      <stop offset="0" stop-color="#39a9dc"/>
      <stop offset=".47" stop-color="#39a9dc"/>
      <stop offset=".94" stop-color="#0b72b5"/>
      <stop offset="1" stop-color="#0b72b5"/>
    </linearGradient>
    <linearGradient id="Unbenannter_Verlauf_6" data-name="Unbenannter Verlauf 6" x1="70.86" y1="823.23" x2="70.86" y2="714.19" gradientTransform="translate(0 -697.89)" gradientUnits="userSpaceOnUse">
      <stop offset="0" stop-color="#032760"/>
      <stop offset=".71" stop-color="#1565ab"/>
      <stop offset="1" stop-color="#007bbd"/>
    </linearGradient>
  </defs>
  <path class="st0" d="M89.75,47.42c-4.02-3.24-8.4-5.65-12.87-7.23-4.73-.23-9.7.34-14.65,1.83-6.7,2.01-12.51,5.42-17.06,9.69-2.78,5.58-4.38,12.13-4.38,19.12,0,4.72.74,9.23,2.07,13.39,2.4,3.64,5.45,7.05,9.12,10.01,4.02,3.25,8.4,5.65,12.87,7.23,4.73.23,9.7-.35,14.65-1.83,6.7-2.01,12.52-5.43,17.06-9.69,2.78-5.58,4.38-12.12,4.38-19.12,0-4.72-.74-9.23-2.06-13.39-2.4-3.64-5.45-7.05-9.12-10.02h0Z"/>
  <path class="st25" d="M42.85,84.21c-1.33-4.15-2.07-8.67-2.07-13.39,0-7,1.6-13.55,4.38-19.12-3.87,3.63-6.81,7.87-8.61,12.39-.06,6.72,2.12,13.78,6.3,20.13h0Z"/>
  <path class="st27" d="M81.5,16.64c6.49.67,12.81,2.32,18.71,4.96,1.83.82,3.59,1.72,5.28,2.69-9.67-9.16-21.78-14.14-34.64-14.14-9.09,0-17.81,2.5-25.56,7.2,5.29-1.91,11-3,17-3.19,6.46-.21,12.94.65,19.2,2.49h0Z"/>
  <path class="st21" d="M98.87,57.43c1.33,4.15,2.06,8.67,2.06,13.39,0,7-1.6,13.54-4.38,19.12,3.87-3.63,6.81-7.87,8.61-12.38.06-6.72-2.12-13.78-6.3-20.13h.01Z"/>
  <path class="st24" d="M60.23,125c-6.49-.67-12.81-2.32-18.72-4.96-1.83-.82-3.59-1.71-5.28-2.69,9.67,9.15,21.78,14.14,34.63,14.14,9.1,0,17.81-2.5,25.56-7.2-5.29,1.91-11,3-17,3.2-6.46.21-12.93-.65-19.2-2.48h.01Z"/>
  <path class="st11" d="M109.58,28.57c4.69,5.44,8.35,11.72,10.92,18.52,3.68,6.26,6.27,13.06,7.56,20.12.93,5.09,1.15,10.11.72,14.97,2.91-9.46,3.03-19.33.2-28.78-3.69-12.31-11.93-22.48-23.47-29.11,1.41,1.34,2.78,2.77,4.08,4.28h0Z"/>
  <path class="st10" d="M45.17,51.69c4.55-4.26,10.36-7.68,17.06-9.69,4.95-1.48,9.92-2.06,14.65-1.83-7.22-2.55-14.67-2.93-21.2-1.14-4.29,3.09-7.91,7.44-10.5,12.65h0Z"/>
  <path class="st11" d="M96.56,89.94c-4.55,4.26-10.36,7.68-17.06,9.69-4.95,1.48-9.92,2.06-14.65,1.83,7.22,2.56,14.67,2.93,21.2,1.14,4.29-3.09,7.91-7.45,10.51-12.65h0Z"/>
  <path class="st2" d="M32.14,113.07c-4.69-5.44-8.35-11.72-10.91-18.52-3.68-6.27-6.27-13.06-7.56-20.12-.93-5.09-1.15-10.11-.72-14.97-2.91,9.46-3.03,19.33-.2,28.79,3.69,12.32,11.94,22.48,23.48,29.12-1.41-1.34-2.78-2.77-4.09-4.28v-.02Z"/>
  <path class="st15" d="M60.23,125c-8.28-2.42-16.18-6.55-23.22-12.23-6.44-5.2-11.77-11.4-15.78-18.22,2.56,6.8,6.23,13.08,10.91,18.52,1.31,1.52,2.67,2.94,4.09,4.28,1.69.97,3.45,1.87,5.28,2.69,5.91,2.64,12.23,4.29,18.72,4.96Z"/>
  <path class="st12" d="M60.23,125c-8.28-2.42-16.18-6.55-23.22-12.23-6.44-5.2-11.77-11.4-15.78-18.22,2.56,6.8,6.23,13.08,10.91,18.52,1.31,1.52,2.67,2.94,4.09,4.28,1.69.97,3.45,1.87,5.28,2.69,5.91,2.64,12.23,4.29,18.72,4.96Z"/>
  <path class="st20" d="M45.17,51.69c2.59-5.21,6.21-9.56,10.51-12.65-5.3,1.46-10,4.33-13.48,8.64-3.77,4.67-5.59,10.39-5.64,16.39,1.8-4.51,4.74-8.76,8.61-12.39h0Z"/>
  <path class="st16" d="M96.56,89.94c-2.59,5.21-6.21,9.56-10.51,12.65,5.3-1.46,10-4.33,13.48-8.64,3.77-4.67,5.59-10.39,5.64-16.39-1.8,4.51-4.74,8.75-8.61,12.38Z"/>
  <path class="st22" d="M96.56,89.94c-2.59,5.21-6.21,9.56-10.51,12.65,5.3-1.46,10-4.33,13.48-8.64,3.77-4.67,5.59-10.39,5.64-16.39-1.8,4.51-4.74,8.75-8.61,12.38Z"/>
  <path class="st8" d="M81.5,16.64c8.27,2.42,16.18,6.55,23.21,12.23,6.44,5.2,11.77,11.4,15.78,18.23-2.56-6.8-6.23-13.08-10.92-18.52-1.31-1.52-2.67-2.94-4.08-4.28-1.69-.97-3.45-1.87-5.28-2.69-5.9-2.64-12.22-4.29-18.71-4.96h0Z"/>
  <path class="st9" d="M51.97,94.22c-3.68-2.96-6.72-6.37-9.12-10.01,1.7,5.31,4.37,10.03,7.76,13.82,4.26,2,9.11,3.18,14.23,3.43-4.47-1.58-8.85-3.99-12.87-7.23h0Z"/>
  <path class="st5" d="M122.44,95.78c-1.94,3.03-4.15,5.87-6.6,8.51-1.83,3.11-3.92,6.05-6.26,8.77-3.92,4.55-8.35,8.3-13.16,11.22,8.52-3.08,15.94-8.29,21.65-15.37,6.2-7.68,9.82-16.87,10.7-26.73-1.44,4.66-3.54,9.23-6.33,13.59h0Z"/>
  <path class="st11" d="M25.88,37.34c1.83-3.1,3.91-6.04,6.26-8.77,3.92-4.55,8.35-8.31,13.16-11.22-8.52,3.08-15.94,8.29-21.65,15.37-6.2,7.68-9.82,16.87-10.7,26.72,1.44-4.66,3.54-9.23,6.33-13.59,1.94-3.03,4.15-5.87,6.6-8.52h0Z"/>
  <path class="st3" d="M89.75,47.42c3.68,2.97,6.72,6.38,9.12,10.02-1.7-5.31-4.37-10.04-7.76-13.82-4.26-2-9.11-3.19-14.23-3.43,4.47,1.58,8.85,3.99,12.87,7.23Z"/>
  <path class="st20" d="M106.14,60.25c-2.24-7.47-7.77-13.23-15.03-16.63,3.39,3.78,6.06,8.5,7.76,13.82,4.18,6.35,6.35,13.41,6.3,20.13,2.22-5.57,2.7-11.56.98-17.31h-.01Z"/>
  <path class="st17" d="M109.58,113.07c2.35-2.73,4.44-5.67,6.26-8.77-7.77,8.38-17.95,14.7-29.51,18.16-8.65,2.59-17.53,3.43-26.11,2.54,6.26,1.83,12.74,2.69,19.2,2.48,6-.19,11.71-1.29,17-3.2,4.81-2.91,9.24-6.67,13.16-11.22h0Z"/>
  <path class="st1" d="M109.58,113.07c2.35-2.73,4.44-5.67,6.26-8.77-7.77,8.38-17.95,14.7-29.51,18.16-8.65,2.59-17.53,3.43-26.11,2.54,6.26,1.83,12.74,2.69,19.2,2.48,6-.19,11.71-1.29,17-3.2,4.81-2.91,9.24-6.67,13.16-11.22h0Z"/>
  <path class="st23" d="M36.55,64.08c-2.22,5.57-2.7,11.56-.98,17.31,2.24,7.46,7.77,13.22,15.03,16.63-3.39-3.79-6.06-8.5-7.76-13.82-4.18-6.35-6.35-13.41-6.3-20.13h.01Z"/>
  <path class="st7" d="M32.14,28.57c-2.35,2.72-4.43,5.66-6.26,8.77,7.77-8.38,17.95-14.69,29.51-18.16,8.65-2.59,17.54-3.43,26.11-2.54-6.26-1.84-12.74-2.69-19.2-2.49-6,.19-11.71,1.28-17,3.19-4.81,2.92-9.25,6.67-13.16,11.22h0Z"/>
  <path class="st26" d="M76.88,40.18c5.12.24,9.98,1.43,14.23,3.43-5.35-5.98-12.46-9.63-20.25-9.63-5.54,0-10.73,1.85-15.19,5.06,6.53-1.79,13.98-1.42,21.2,1.13h0Z"/>
  <path class="st14" d="M128.05,67.22c-1.29-7.06-3.87-13.86-7.56-20.12,2.79,7.41,4.27,15.45,4.27,23.72,0,12.07-3.12,23.63-8.92,33.48,2.45-2.64,4.66-5.48,6.6-8.51,2.79-4.36,4.89-8.93,6.33-13.59.43-4.86.21-9.88-.72-14.97h0Z"/>
  <path class="st4" d="M128.05,67.22c-1.29-7.06-3.87-13.86-7.56-20.12,2.79,7.41,4.27,15.45,4.27,23.72,0,12.07-3.12,23.63-8.92,33.48,2.45-2.64,4.66-5.48,6.6-8.51,2.79-4.36,4.89-8.93,6.33-13.59.43-4.86.21-9.88-.72-14.97h0Z"/>
  <path class="st6" d="M64.84,101.46c-5.12-.25-9.98-1.43-14.23-3.43,5.35,5.98,12.46,9.63,20.25,9.63,5.54,0,10.73-1.85,15.19-5.06-6.53,1.79-13.98,1.42-21.2-1.14h-.01Z"/>
  <path class="st13" d="M13.67,74.42c1.29,7.06,3.88,13.86,7.56,20.12-2.79-7.41-4.27-15.45-4.27-23.73,0-12.07,3.12-23.63,8.92-33.48-2.45,2.64-4.67,5.49-6.6,8.52-2.79,4.36-4.89,8.92-6.33,13.59-.43,4.86-.21,9.88.72,14.97h0Z"/>
  <path class="st19" d="M13.67,74.42c1.29,7.06,3.88,13.86,7.56,20.12-2.79-7.41-4.27-15.45-4.27-23.73,0-12.07,3.12-23.63,8.92-33.48-2.45,2.64-4.67,5.49-6.6,8.52-2.79,4.36-4.89,8.92-6.33,13.59-.43,4.86-.21,9.88.72,14.97h0Z"/>
  <path class="st18" d="M120.49,47.1c-4.01-6.83-9.34-13.03-15.78-18.23-7.03-5.67-14.94-9.8-23.21-12.23-8.58-.89-17.46-.05-26.11,2.54-11.56,3.46-21.74,9.78-29.51,18.16-5.8,9.85-8.93,21.41-8.93,33.48,0,8.28,1.48,16.31,4.27,23.73,4.01,6.83,9.34,13.02,15.78,18.22,7.03,5.68,14.94,9.81,23.22,12.23,8.57.89,17.45.05,26.11-2.54,11.56-3.47,21.74-9.78,29.51-18.16,5.8-9.85,8.92-21.41,8.92-33.48,0-8.28-1.48-16.31-4.27-23.72ZM99.52,93.95c-3.48,4.31-8.18,7.19-13.48,8.64-4.46,3.21-9.65,5.06-15.19,5.06-7.79,0-14.9-3.65-20.25-9.63-7.26-3.41-12.8-9.17-15.03-16.63-1.72-5.75-1.25-11.74.98-17.31.05-6,1.87-11.72,5.64-16.39,3.48-4.31,8.18-7.19,13.48-8.64,4.46-3.21,9.65-5.06,15.19-5.06,7.79,0,14.9,3.65,20.25,9.63,7.26,3.41,12.8,9.17,15.03,16.63,1.72,5.75,1.25,11.74-.98,17.31-.05,6-1.87,11.72-5.64,16.39Z"/>
</svg>